<?xml version="1.0" standalone="no"?>
<!DOCTYPE svg PUBLIC "-//W3C//DTD SVG 20010904//EN"
 "http://www.w3.org/TR/2001/REC-SVG-20010904/DTD/svg10.dtd">
<svg version="1.0" xmlns="http://www.w3.org/2000/svg"
 width="976.000000pt" height="976.000000pt" viewBox="0 0 976.000000 976.000000"
 preserveAspectRatio="xMidYMid meet">
<metadata>
Created by potrace 1.14, written by Peter Selinger 2001-2017
</metadata>
<g transform="translate(0.000000,976.000000) scale(0.100000,-0.100000)"
fill="#000000" stroke="none">
<path d="M4644 9736 c-27 -13 -64 -40 -82 -60 -63 -70 -66 -83 -66 -376 0
-250 1 -267 21 -310 40 -84 105 -135 187 -147 28 -4 53 -7 56 -6 3 1 23 4 45
7 22 4 42 11 43 16 2 6 10 10 18 10 9 0 35 20 59 45 68 69 73 96 71 400 -2
296 -2 298 -81 377 -66 66 -183 85 -271 44z"/>
<path d="M7125 9232 c-22 -1 -64 -15 -94 -29 -56 -28 -81 -57 -186 -213 -27
-41 -53 -77 -56 -80 -22 -19 -114 -171 -124 -204 -24 -82 -2 -176 57 -239 101
-109 270 -108 372 3 20 22 33 40 29 40 -4 0 -3 4 3 8 10 6 100 133 161 227 14
22 32 45 39 52 7 7 25 39 40 70 22 45 28 70 27 120 0 34 -6 70 -13 78 -7 8 -9
15 -6 15 8 0 -30 58 -53 80 -49 48 -128 77 -196 72z"/>
<path d="M2500 9223 c-8 -3 -22 -7 -30 -10 -8 -4 -17 -7 -20 -7 -23 -5 -75
-48 -100 -83 -38 -53 -43 -71 -44 -153 0 -67 12 -99 123 -303 44 -81 75 -142
76 -147 0 -3 12 -23 27 -45 32 -49 70 -82 117 -102 48 -21 143 -24 177 -7 14
8 32 14 38 14 17 0 96 80 96 97 0 7 4 13 9 13 15 0 30 82 26 138 -3 41 -20 83
-77 195 -40 78 -75 144 -78 147 -3 3 -21 36 -40 73 -52 101 -105 153 -175 172
-37 10 -105 14 -125 8z"/>
<path d="M4678 8705 c-2 -1 -43 -6 -93 -11 -114 -9 -139 -12 -145 -14 -3 -1
-8 -2 -12 -1 -4 0 -29 -3 -55 -9 -42 -8 -75 -14 -148 -25 -18 -3 -98 -21 -135
-31 -28 -7 -105 -26 -120 -29 -8 -2 -28 -8 -45 -15 -16 -6 -30 -11 -30 -10 0
1 -7 -1 -15 -4 -8 -2 -40 -12 -70 -22 -153 -47 -560 -226 -560 -246 0 -4 -7
-8 -15 -8 -14 0 -62 -27 -141 -78 -10 -6 -34 -20 -51 -29 -18 -9 -33 -20 -33
-25 0 -4 -4 -8 -9 -8 -13 0 -165 -109 -169 -121 -2 -5 -8 -9 -13 -9 -13 0
-199 -151 -199 -162 0 -4 -5 -8 -11 -8 -13 0 -255 -242 -319 -319 -25 -29 -50
-59 -56 -65 -6 -6 -36 -45 -67 -86 -31 -41 -63 -83 -71 -92 -8 -9 -20 -27 -27
-40 -6 -13 -15 -25 -18 -28 -12 -10 -51 -69 -51 -77 0 -4 -11 -21 -25 -37 -14
-16 -25 -32 -25 -37 0 -4 -18 -37 -41 -74 -106 -175 -241 -479 -298 -675 -12
-41 -26 -84 -31 -95 -8 -19 -43 -159 -55 -217 -3 -16 -7 -40 -10 -55 -3 -16
-8 -35 -10 -43 -2 -8 -6 -28 -9 -45 -2 -16 -9 -61 -15 -100 -48 -307 -46 -699
5 -1040 7 -46 40 -209 55 -270 20 -86 85 -308 99 -340 4 -11 18 -47 31 -80 32
-86 130 -309 138 -315 4 -3 13 -21 21 -40 7 -19 20 -43 28 -52 8 -10 11 -18 6
-18 -5 0 -4 -4 1 -8 9 -7 34 -49 59 -99 6 -13 14 -23 19 -23 4 0 7 -7 7 -15 0
-8 5 -15 10 -15 6 0 10 -5 10 -12 0 -9 70 -121 103 -163 4 -5 31 -41 59 -80
29 -38 56 -74 60 -80 10 -12 34 -41 91 -110 72 -86 397 -405 413 -405 3 0 37
-26 77 -58 68 -55 273 -202 282 -202 4 0 108 -63 115 -70 3 -3 27 -16 54 -30
53 -28 65 -48 59 -100 -2 -19 -4 -48 -3 -65 5 -123 5 -157 -2 -161 -5 -3 -5
-10 -2 -16 3 -5 7 -73 7 -151 1 -191 29 -277 121 -371 60 -60 109 -90 190
-114 65 -20 93 -20 1306 -20 1206 0 1241 0 1291 19 85 33 122 55 175 106 28
26 51 50 51 53 -1 3 8 18 18 34 11 16 29 58 41 92 19 58 21 85 22 358 0 162 3
300 6 305 4 5 28 20 54 33 26 13 49 26 52 29 3 4 32 22 65 40 33 18 62 35 65
38 3 3 39 28 80 55 41 27 97 67 125 88 27 21 61 47 75 57 14 11 35 28 46 38
12 10 46 38 75 63 108 91 297 285 424 436 13 16 44 57 94 124 22 30 45 60 51
67 5 7 10 16 10 22 0 5 4 11 8 13 11 4 154 235 152 244 -1 4 2 10 7 13 14 10
100 176 148 286 9 22 23 54 30 70 8 17 14 33 14 38 0 4 8 21 17 38 8 17 17 38
20 47 2 10 22 71 45 137 22 66 42 127 44 135 1 8 8 35 15 60 13 49 18 71 26
110 2 14 7 31 10 39 2 8 7 30 10 50 3 20 7 43 10 51 5 14 9 41 19 115 2 17 4
30 5 30 1 0 4 16 6 35 1 19 5 55 8 80 25 211 25 586 1 735 -2 17 -7 55 -9 85
-3 30 -7 66 -11 80 -3 14 -7 39 -10 55 -10 63 -27 150 -50 248 -13 58 -69 244
-94 314 -16 44 -27 83 -25 86 2 2 -2 10 -11 17 -8 7 -15 19 -15 27 0 8 -11 38
-24 66 -13 29 -41 90 -62 137 -21 47 -41 87 -44 90 -3 3 -13 23 -23 45 -32 67
-164 285 -232 380 -81 114 -98 135 -230 294 -42 51 -263 269 -324 322 -36 29
-72 61 -81 69 -9 8 -29 24 -44 35 -16 11 -33 25 -40 30 -40 35 -271 195 -282
195 -4 0 -15 6 -23 14 -37 32 -394 215 -471 241 -15 5 -68 27 -85 35 -11 5
-63 23 -115 40 -52 18 -102 34 -110 38 -8 3 -19 7 -25 8 -5 1 -13 3 -17 4 -5
1 -11 3 -15 4 -5 2 -28 8 -53 15 -25 7 -52 15 -60 17 -92 21 -169 37 -185 39
-11 2 -20 4 -20 5 0 1 -9 3 -20 5 -138 21 -162 24 -220 31 -27 3 -66 8 -85 11
-38 5 -516 13 -522 8z"/>
<path d="M1007 7776 c-75 -21 -137 -83 -162 -163 -35 -109 -4 -197 100 -289
37 -33 83 -73 101 -91 19 -17 34 -30 34 -27 0 2 17 -12 38 -30 145 -132 190
-158 270 -161 142 -5 249 92 260 235 3 52 0 74 -17 110 -30 64 -47 81 -296
292 -11 9 -33 29 -50 43 -44 39 -101 76 -122 80 -10 2 -18 4 -18 5 0 9 -101 6
-138 -4z"/>
<path d="M8570 7683 c-30 -15 -57 -29 -60 -33 -8 -9 -171 -130 -176 -130 -2 0
-14 -9 -26 -19 -13 -11 -54 -44 -93 -73 -82 -63 -115 -115 -122 -194 -19 -197
190 -339 362 -246 29 15 159 106 181 127 6 5 22 17 34 25 158 107 215 161 240
228 26 70 24 137 -8 199 -63 127 -206 176 -332 116z"/>
<path d="M4159 908 c-71 -11 -84 -15 -139 -43 -61 -31 -145 -106 -167 -150 -9
-16 -19 -32 -22 -35 -3 -3 -15 -30 -26 -60 -14 -39 -20 -83 -21 -154 -1 -152
32 -242 126 -336 56 -56 127 -100 160 -100 10 0 20 -6 22 -12 6 -18 1464 -25
1553 -8 87 17 163 56 222 115 49 50 102 138 118 200 11 41 13 245 3 251 -4 3
-8 12 -8 20 0 9 -11 40 -26 71 -26 58 -128 168 -174 190 -65 29 -98 41 -135
48 -51 10 -1426 12 -1486 3z"/>
</g>
</svg>
