<svg id="Lag_1" data-name="Lag 1" xmlns="http://www.w3.org/2000/svg" width="384px"
	 height="61px" viewBox="0 0 260.81 38.36"><defs><style>.cls-1{fill:#1d1d1b;}.cls-2{fill:#fff;}.cls-3{fill:#dd052b;}</style></defs><path class="cls-1" d="M.94,2.42h25V8H10.23v2.74H24.46V16H10.23v2.74H26.36v5.62H.94Z" transform="translate(-0.75 -1.97)"/><path class="cls-1" d="M30.71,2.42H40.2L49,14.16h.08V2.42h8.78v22h-9l-9.25-12h-.08v12H30.71Z" transform="translate(-0.75 -1.97)"/><path class="cls-1" d="M62.71,2.42H87.66V8H72v2.74H86.22V16H72v2.74H88.12v5.62H62.71Z" transform="translate(-0.75 -1.97)"/><path class="cls-1" d="M92.43,2.42h17.69c5.28,0,9.84,2.12,9.84,6.27a5.71,5.71,0,0,1-4.52,5.5,6.11,6.11,0,0,1,4.43,5.48c.13,1.07.17,3.69,1,4.7H111.6a11.49,11.49,0,0,1-.76-3.38c-.26-2.09-.51-4.27-4.18-4.27h-4.94v7.65H92.43ZM101.72,12h4.85c1.73,0,4.1-.21,4.1-2.18,0-1.39-1.06-2.19-4.6-2.19h-4.35Z" transform="translate(-0.75 -1.97)"/><path class="cls-1" d="M140,24.37H129.58l-9-22H130l4.94,13.31H135l4.85-13.31h9.54Z" transform="translate(-0.75 -1.97)"/><path class="cls-1" d="M151.07,2.42h25V8H160.36v2.74h14.23V16H160.36v2.74h16.13v5.62H151.07Z" transform="translate(-0.75 -1.97)"/><path class="cls-1" d="M188.77,12.69,178.85,2.42h10.89l4.56,6,4.48-6h10.3l-9.67,10.33,10.77,11.62H199l-5.15-6.55-5.32,6.55H177.88Z" transform="translate(-0.75 -1.97)"/><path class="cls-1" d="M238,2.42H223.78V40.2h16.76a120.19,120.19,0,0,0-6.36-25.86A111,111,0,0,1,244.76,40.2h1.61A105.81,105.81,0,0,0,241.76,23,67.16,67.16,0,0,1,238,2.42Z" transform="translate(-0.75 -1.97)"/><path class="cls-1" d="M261.56,2.42H241.41A124,124,0,0,0,246.73,22a68.73,68.73,0,0,1,3.9,18.17h10.93Z" transform="translate(-0.75 -1.97)"/><path class="cls-2" d="M240.54,40.2h4.22a111,111,0,0,0-10.58-25.86A120.19,120.19,0,0,1,240.54,40.2Z" transform="translate(-0.75 -1.97)"/><path class="cls-2" d="M241.41,2.42H238A67.16,67.16,0,0,0,241.76,23a105.81,105.81,0,0,1,4.61,17.17h4.26A68.73,68.73,0,0,0,246.73,22,124,124,0,0,1,241.41,2.42Z" transform="translate(-0.75 -1.97)"/><path class="cls-3" d="M.75,2.24h25V7.86H10V10.6H24.27v5.23H10v2.73H26.17v5.63H.75Z" transform="translate(-0.75 -1.97)"/><path class="cls-3" d="M30.51,2.24H40L48.79,14h.09V2.24h8.78v22h-9l-9.25-12H39.3v12H30.51Z" transform="translate(-0.75 -1.97)"/><path class="cls-3" d="M62.52,2.24H87.47V7.86H71.8V10.6H86v5.23H71.8v2.73H87.93v5.63H62.52Z" transform="translate(-0.75 -1.97)"/><path class="cls-3" d="M92.24,2.24h17.69c5.28,0,9.83,2.12,9.83,6.27a5.7,5.7,0,0,1-4.51,5.5,6.11,6.11,0,0,1,4.43,5.48c.13,1.07.17,3.69,1,4.7H111.4a12.24,12.24,0,0,1-.76-3.38c-.25-2.09-.5-4.28-4.17-4.28h-4.94v7.66H92.24Zm9.29,9.59h4.85c1.73,0,4.1-.22,4.1-2.18,0-1.39-1.06-2.19-4.61-2.19h-4.34Z" transform="translate(-0.75 -1.97)"/><path class="cls-3" d="M139.78,24.19H129.39l-9-22h9.37l4.94,13.31h.08l4.86-13.31h9.54Z" transform="translate(-0.75 -1.97)"/><path class="cls-3" d="M150.88,2.24h25V7.86H160.17V10.6H174.4v5.23H160.17v2.73H176.3v5.63H150.88Z" transform="translate(-0.75 -1.97)"/><path class="cls-3" d="M188.58,12.51,178.66,2.24h10.89l4.56,6,4.48-6h10.3l-9.67,10.33L210,24.19H198.8l-5.15-6.55-5.32,6.55H177.69Z" transform="translate(-0.75 -1.97)"/><path class="cls-3" d="M237.83,2.24H223.59V40h16.76A120.19,120.19,0,0,0,234,14.16,111,111,0,0,1,244.57,40h1.61a105.81,105.81,0,0,0-4.61-17.17A67.48,67.48,0,0,1,237.83,2.24Z" transform="translate(-0.75 -1.97)"/><path class="cls-3" d="M261.37,2.24H241.22a123.59,123.59,0,0,0,5.32,19.6A68.8,68.8,0,0,1,250.44,40h10.93Z" transform="translate(-0.75 -1.97)"/><path class="cls-2" d="M240.35,40h4.22A111,111,0,0,0,234,14.16,120.19,120.19,0,0,1,240.35,40Z" transform="translate(-0.75 -1.97)"/><path class="cls-2" d="M241.22,2.24h-3.39a67.48,67.48,0,0,0,3.74,20.61A105.81,105.81,0,0,1,246.18,40h4.26a68.8,68.8,0,0,0-3.9-18.18A123.59,123.59,0,0,1,241.22,2.24Z" transform="translate(-0.75 -1.97)"/><path class="cls-1" d="M210.5,5.2a3,3,0,1,1,3,3A3,3,0,0,1,210.5,5.2Zm5.3,0a2.28,2.28,0,1,0-4.56,0,2.28,2.28,0,1,0,4.56,0Zm-3.44-1.72h1.27c.82,0,1.26.28,1.26,1a.86.86,0,0,1-.9.92l.92,1.5h-.65l-.88-1.47H213V6.9h-.63ZM213,4.94h.56c.38,0,.7-.05.7-.51s-.36-.46-.69-.46H213Z" transform="translate(-0.75 -1.97)"/><path class="cls-3" d="M210.5,5a3,3,0,1,1,3,3A3,3,0,0,1,210.5,5Zm5.3,0a2.28,2.28,0,1,0-4.56,0,2.28,2.28,0,1,0,4.56,0Zm-3.44-1.72h1.27c.82,0,1.26.28,1.26,1a.86.86,0,0,1-.9.92l.92,1.5h-.65l-.88-1.47H213V6.69h-.63ZM213,4.73h.56c.38,0,.7-.05.7-.51s-.36-.47-.69-.47H213Z" transform="translate(-0.75 -1.97)"/><path class="cls-1" d="M3.43,40.19,1.2,33.86h.91l1.8,5.49h0l1.83-5.49h.88L4.38,40.19Z" transform="translate(-0.75 -1.97)"/><path class="cls-1" d="M15.32,33.86v.71H11.79v2h3.29v.71H11.79v2.19h3.56v.71H11V33.86Z" transform="translate(-0.75 -1.97)"/><path class="cls-1" d="M20.89,33.86,24.23,39h0V33.86H25v6.33h-.92l-3.31-5.08h0v5.08H20V33.86Z" transform="translate(-0.75 -1.97)"/><path class="cls-1" d="M29.37,34.57v-.71h5.06v.71H32.32v5.62h-.84V34.57Z" transform="translate(-0.75 -1.97)"/><path class="cls-1" d="M39.65,33.86v6.33h-.84V33.86Z" transform="translate(-0.75 -1.97)"/><path class="cls-1" d="M45.59,33.86,48.93,39h0V33.86h.8v6.33h-.92l-3.31-5.08h0v5.08H44.7V33.86Z" transform="translate(-0.75 -1.97)"/><path class="cls-1" d="M58.56,40.12a3.13,3.13,0,0,1-1.11.22,2.89,2.89,0,0,1-1.27-.27,2.76,2.76,0,0,1-1-.7,3.06,3.06,0,0,1-.59-1,3.44,3.44,0,0,1-.21-1.2,4.66,4.66,0,0,1,.19-1.31,3.28,3.28,0,0,1,.57-1.1,2.77,2.77,0,0,1,2.26-1,3.79,3.79,0,0,1,1,.12,2.47,2.47,0,0,1,.82.38,2.2,2.2,0,0,1,.6.65,2.6,2.6,0,0,1,.33,1h-.84a1.63,1.63,0,0,0-.23-.62,1.33,1.33,0,0,0-.42-.43,1.92,1.92,0,0,0-.56-.26,2.86,2.86,0,0,0-.67-.08,2,2,0,0,0-1,.23,2,2,0,0,0-.67.61,2.5,2.5,0,0,0-.39.86,4.07,4.07,0,0,0-.12,1,3,3,0,0,0,.14,1,2.32,2.32,0,0,0,.42.81,2,2,0,0,0,.67.56,2,2,0,0,0,.94.21,2.42,2.42,0,0,0,.88-.16A2,2,0,0,0,59,39a2,2,0,0,0,.4-.66,2.37,2.37,0,0,0,.11-.81h-2v-.71h2.77v3.33H59.7l-.22-.79A2.13,2.13,0,0,1,58.56,40.12Z" transform="translate(-0.75 -1.97)"/><path class="cls-1" d="M73.39,33.86a3.15,3.15,0,0,1,2.25.75,3,3,0,0,1,.79,2.27,5,5,0,0,1-.18,1.41,2.66,2.66,0,0,1-.55,1,2.38,2.38,0,0,1-1,.64,3.73,3.73,0,0,1-1.36.22H71.21V33.86Zm.07,5.62a2.37,2.37,0,0,0,.35,0,2.12,2.12,0,0,0,.46-.1,2.15,2.15,0,0,0,.47-.25,1.44,1.44,0,0,0,.42-.43,2.32,2.32,0,0,0,.31-.69,3.6,3.6,0,0,0,.12-1,4.4,4.4,0,0,0-.11-1,2,2,0,0,0-.37-.77,1.48,1.48,0,0,0-.65-.47,2.57,2.57,0,0,0-1-.17H72.06v4.91Z" transform="translate(-0.75 -1.97)"/><path class="cls-1" d="M85.47,33.86v.71H81.94v2h3.29v.71H81.94v2.19h3.55v.71h-4.4V33.86Z" transform="translate(-0.75 -1.97)"/><path class="cls-1" d="M93.32,34.73a1.75,1.75,0,0,0-1.08-.31,3.05,3.05,0,0,0-.52,0,1.7,1.7,0,0,0-.46.18.92.92,0,0,0-.32.33,1.05,1.05,0,0,0-.12.52A.65.65,0,0,0,91,36a1.17,1.17,0,0,0,.46.29,3.57,3.57,0,0,0,.65.19l.74.17c.25.06.5.13.74.21a2.62,2.62,0,0,1,.65.32,1.43,1.43,0,0,1,.46.52,1.5,1.5,0,0,1,.18.78,1.6,1.6,0,0,1-.23.86,1.82,1.82,0,0,1-.58.59,2.39,2.39,0,0,1-.79.32,3.85,3.85,0,0,1-.88.11,3.61,3.61,0,0,1-1-.14,2.51,2.51,0,0,1-.84-.4,1.92,1.92,0,0,1-.57-.69,2.38,2.38,0,0,1-.2-1h.79a1.46,1.46,0,0,0,.16.69,1.33,1.33,0,0,0,.41.47,1.61,1.61,0,0,0,.59.28,2.61,2.61,0,0,0,.69.09,2.76,2.76,0,0,0,.57-.06,1.46,1.46,0,0,0,.52-.18,1,1,0,0,0,.37-.35,1,1,0,0,0,.14-.57.77.77,0,0,0-.17-.53,1.14,1.14,0,0,0-.46-.33,2.92,2.92,0,0,0-.65-.21L92,37.25l-.74-.2a2.57,2.57,0,0,1-.65-.29,1.41,1.41,0,0,1-.47-.47,1.46,1.46,0,0,1-.17-.73,1.66,1.66,0,0,1,.2-.82,1.62,1.62,0,0,1,.52-.58,2.45,2.45,0,0,1,.73-.34,3.48,3.48,0,0,1,.85-.11,3.21,3.21,0,0,1,.9.12,1.89,1.89,0,0,1,.74.36,1.81,1.81,0,0,1,.49.63,2.21,2.21,0,0,1,.2.9h-.8A1.28,1.28,0,0,0,93.32,34.73Z" transform="translate(-0.75 -1.97)"/><path class="cls-1" d="M100.41,33.86v6.33h-.84V33.86Z" transform="translate(-0.75 -1.97)"/><path class="cls-1" d="M109.28,40.12a3.13,3.13,0,0,1-1.11.22,2.92,2.92,0,0,1-1.27-.27,2.86,2.86,0,0,1-1-.7,3.24,3.24,0,0,1-.59-1,3.44,3.44,0,0,1-.2-1.2,4.32,4.32,0,0,1,.19-1.31,3,3,0,0,1,.57-1.1,2.79,2.79,0,0,1,.94-.75,2.84,2.84,0,0,1,1.31-.28,3.74,3.74,0,0,1,1,.12,2.47,2.47,0,0,1,.82.38,2.2,2.2,0,0,1,.6.65,2.43,2.43,0,0,1,.34,1h-.85a1.63,1.63,0,0,0-.23-.62,1.41,1.41,0,0,0-.41-.43,2.12,2.12,0,0,0-.57-.26,2.86,2.86,0,0,0-.67-.08,2.07,2.07,0,0,0-1,.23,2,2,0,0,0-.67.61,2.7,2.7,0,0,0-.39.86,4.07,4.07,0,0,0-.12,1,3.31,3.31,0,0,0,.14,1,2.5,2.5,0,0,0,.42.81,2.07,2.07,0,0,0,.68.56,2,2,0,0,0,.93.21,2.38,2.38,0,0,0,.88-.16,2,2,0,0,0,.64-.44,1.86,1.86,0,0,0,.4-.66,2,2,0,0,0,.11-.81h-2v-.71H111v3.33h-.53l-.23-.79A2,2,0,0,1,109.28,40.12Z" transform="translate(-0.75 -1.97)"/><path class="cls-1" d="M116.72,33.86,120.06,39h0V33.86h.8v6.33H120l-3.31-5.08h0v5.08h-.79V33.86Z" transform="translate(-0.75 -1.97)"/><path class="cls-1" d="M135.15,34.73a1.75,1.75,0,0,0-1.08-.31,3,3,0,0,0-.52,0,1.58,1.58,0,0,0-.46.18.92.92,0,0,0-.32.33,1.05,1.05,0,0,0-.12.52.69.69,0,0,0,.17.48,1.21,1.21,0,0,0,.47.29,3.35,3.35,0,0,0,.65.19l.74.17c.25.06.5.13.74.21a2.62,2.62,0,0,1,.65.32,1.53,1.53,0,0,1,.46.52,1.5,1.5,0,0,1,.17.78,1.6,1.6,0,0,1-.22.86,1.92,1.92,0,0,1-.58.59,2.36,2.36,0,0,1-.8.32,3.61,3.61,0,0,1-1.88,0,2.56,2.56,0,0,1-.83-.4,1.92,1.92,0,0,1-.57-.69,2.23,2.23,0,0,1-.21-1h.8a1.35,1.35,0,0,0,.16.69,1.33,1.33,0,0,0,.41.47,1.57,1.57,0,0,0,.58.28,2.75,2.75,0,0,0,1.27,0,1.53,1.53,0,0,0,.52-.18,1,1,0,0,0,.37-.35,1.09,1.09,0,0,0,.14-.57.82.82,0,0,0-.17-.53,1.21,1.21,0,0,0-.46-.33,2.92,2.92,0,0,0-.65-.21l-.74-.16-.75-.2a2.57,2.57,0,0,1-.65-.29,1.47,1.47,0,0,1-.46-.47,1.46,1.46,0,0,1-.17-.73,1.66,1.66,0,0,1,.19-.82,1.71,1.71,0,0,1,.52-.58,2.51,2.51,0,0,1,.74-.34,3.41,3.41,0,0,1,.85-.11,3.26,3.26,0,0,1,.9.12,1.85,1.85,0,0,1,.73.36,1.73,1.73,0,0,1,.5.63,2.21,2.21,0,0,1,.2.9h-.8A1.32,1.32,0,0,0,135.15,34.73Z" transform="translate(-0.75 -1.97)"/><path class="cls-1" d="M141.2,35.78a2.94,2.94,0,0,1,.57-1.06,2.66,2.66,0,0,1,.95-.73,3.25,3.25,0,0,1,2.64,0,2.66,2.66,0,0,1,.95.73,3.28,3.28,0,0,1,.57,1.06,4,4,0,0,1,.19,1.25,3.92,3.92,0,0,1-.19,1.24,3.18,3.18,0,0,1-.57,1.06,2.68,2.68,0,0,1-.95.74,3.36,3.36,0,0,1-2.64,0,2.68,2.68,0,0,1-.95-.74,2.86,2.86,0,0,1-.57-1.06A3.92,3.92,0,0,1,141,37,4,4,0,0,1,141.2,35.78ZM142,38a2.94,2.94,0,0,0,.39.84,2,2,0,0,0,1.68.83,2.07,2.07,0,0,0,1-.23,2,2,0,0,0,.69-.6,2.94,2.94,0,0,0,.39-.84,3.73,3.73,0,0,0,.12-.94,3.81,3.81,0,0,0-.12-1,2.76,2.76,0,0,0-.39-.83,2,2,0,0,0-.69-.6,2.07,2.07,0,0,0-1-.23,2,2,0,0,0-1.68.83,2.76,2.76,0,0,0-.39.83,3.81,3.81,0,0,0-.12,1A3.73,3.73,0,0,0,142,38Z" transform="translate(-0.75 -1.97)"/><path class="cls-1" d="M152.58,33.86v5.62h3.35v.71h-4.19V33.86Z" transform="translate(-0.75 -1.97)"/><path class="cls-1" d="M164.71,39.73a2.6,2.6,0,0,1-1.84.61,2.9,2.9,0,0,1-1.91-.58,2.3,2.3,0,0,1-.69-1.85v-4h.84v4a1.75,1.75,0,0,0,.45,1.29,1.84,1.84,0,0,0,1.31.44,1.63,1.63,0,0,0,1.23-.44,1.82,1.82,0,0,0,.42-1.29v-4h.84v4A2.39,2.39,0,0,1,164.71,39.73Z" transform="translate(-0.75 -1.97)"/><path class="cls-1" d="M169.67,34.57v-.71h5.07v.71h-2.12v5.62h-.84V34.57Z" transform="translate(-0.75 -1.97)"/><path class="cls-1" d="M180,33.86v6.33h-.84V33.86Z" transform="translate(-0.75 -1.97)"/><path class="cls-1" d="M184.84,35.78a3.28,3.28,0,0,1,.57-1.06,2.75,2.75,0,0,1,1-.73A3.28,3.28,0,0,1,189,34a2.71,2.71,0,0,1,.94.73,3.12,3.12,0,0,1,.58,1.06,4.35,4.35,0,0,1,.19,1.25,4.23,4.23,0,0,1-.19,1.24,3,3,0,0,1-.58,1.06,2.74,2.74,0,0,1-.94.74,3.39,3.39,0,0,1-2.65,0,2.77,2.77,0,0,1-1-.74,3.18,3.18,0,0,1-.57-1.06,3.92,3.92,0,0,1-.19-1.24A4,4,0,0,1,184.84,35.78Zm.78,2.19a2.49,2.49,0,0,0,.39.84,2,2,0,0,0,.68.6,2.27,2.27,0,0,0,2,0,2,2,0,0,0,.68-.6,2.49,2.49,0,0,0,.39-.84,3.73,3.73,0,0,0,.12-.94,3.81,3.81,0,0,0-.12-1,2.35,2.35,0,0,0-.39-.83,2,2,0,0,0-.68-.6,2.27,2.27,0,0,0-2,0,2,2,0,0,0-.68.6,2.35,2.35,0,0,0-.39.83,3.4,3.4,0,0,0-.13,1A3.33,3.33,0,0,0,185.62,38Z" transform="translate(-0.75 -1.97)"/><path class="cls-1" d="M196.27,33.86,199.6,39h0V33.86h.8v6.33h-.92l-3.31-5.08h0v5.08h-.8V33.86Z" transform="translate(-0.75 -1.97)"/><path class="cls-1" d="M208.59,34.73a1.74,1.74,0,0,0-1.07-.31,3.07,3.07,0,0,0-.53,0,1.51,1.51,0,0,0-.45.18.85.85,0,0,0-.32.33,1.05,1.05,0,0,0-.12.52.64.64,0,0,0,.17.48,1.17,1.17,0,0,0,.46.29,3.57,3.57,0,0,0,.65.19l.74.17c.25.06.5.13.74.21a2.7,2.7,0,0,1,.66.32,1.64,1.64,0,0,1,.46.52,1.79,1.79,0,0,1-.06,1.64,1.82,1.82,0,0,1-.58.59,2.3,2.3,0,0,1-.79.32,3.61,3.61,0,0,1-1.88,0,2.37,2.37,0,0,1-.83-.4,1.92,1.92,0,0,1-.57-.69,2.23,2.23,0,0,1-.21-1h.8a1.47,1.47,0,0,0,.15.69,1.44,1.44,0,0,0,.41.47,1.69,1.69,0,0,0,.59.28,2.67,2.67,0,0,0,.69.09,2.76,2.76,0,0,0,.57-.06,1.39,1.39,0,0,0,.52-.18,1.07,1.07,0,0,0,.38-.35,1.09,1.09,0,0,0,.14-.57.77.77,0,0,0-.18-.53,1.07,1.07,0,0,0-.46-.33,2.92,2.92,0,0,0-.65-.21l-.74-.16-.74-.2a2.57,2.57,0,0,1-.65-.29,1.38,1.38,0,0,1-.46-.47,1.36,1.36,0,0,1-.18-.73,1.66,1.66,0,0,1,.2-.82,1.62,1.62,0,0,1,.52-.58,2.45,2.45,0,0,1,.73-.34,3.48,3.48,0,0,1,.85-.11,3.28,3.28,0,0,1,.91.12,1.92,1.92,0,0,1,.73.36,1.7,1.7,0,0,1,.49.63,2.06,2.06,0,0,1,.2.9h-.79A1.32,1.32,0,0,0,208.59,34.73Z" transform="translate(-0.75 -1.97)"/></svg>