<?xml version="1.0" encoding="utf-8"?>
<!-- Generator: Adobe Illustrator 21.1.0, SVG Export Plug-In . SVG Version: 6.00 Build 0)  -->
<svg version="1.1" id="Layer_1" xmlns="http://www.w3.org/2000/svg" xmlns:xlink="http://www.w3.org/1999/xlink" x="0px" y="0px"
	 viewBox="0 0 432 104.4" style="enable-background:new 0 0 432 104.4;" xml:space="preserve">
<style type="text/css">
	.Arched_x0020_Green{fill:url(#SVGID_1_);stroke:#FFFFFF;stroke-width:0.25;stroke-miterlimit:1;}
	.st0{fill:#EE3124;}
	.st1{fill:#FFD520;}
</style>
<linearGradient id="SVGID_1_" gradientUnits="userSpaceOnUse" x1="0" y1="268.2" x2="0.7071" y2="267.4929">
	<stop  offset="0" style="stop-color:#20AC4B"/>
	<stop  offset="0.9831" style="stop-color:#19361A"/>
</linearGradient>
<g>
	<rect class="st0" width="103.5" height="2"/>
	<rect y="82.3" class="st0" width="103.5" height="20.1"/>
	<rect y="64.3" class="st0" width="103.5" height="14.1"/>
	<rect y="30.1" class="st0" width="103.5" height="8"/>
	<rect y="16.1" class="st0" width="103.5" height="4"/>
	<rect y="46.2" class="st0" width="103.5" height="10"/>
	<rect y="2" class="st1" width="103.5" height="14.1"/>
	<rect y="38.2" class="st1" width="103.5" height="8"/>
	<rect y="56.2" class="st1" width="103.5" height="8"/>
	<rect y="78.3" class="st1" width="103.5" height="4"/>
	<rect y="20.1" class="st1" width="103.5" height="10"/>
	<path d="M288,14.4c4,0,7.2-3.3,7.2-7.2c0-4-3.2-7.2-7.2-7.2c-4,0-7.3,3.3-7.3,7.2C280.8,11.2,284,14.4,288,14.4 M288,1.4
		c3.2,0,5.9,2.6,5.9,5.8c0,3.3-2.6,5.9-5.9,5.9c-3.3,0-5.9-2.6-5.9-5.9C282.1,4,284.8,1.4,288,1.4"/>
	<path d="M203.2,26.6v42.7c0,6-1.4,10.5-4.2,13.7c-2.8,3.2-6.8,4.7-12,4.7c-4.2,0-7.2-1.1-9.2-3.4c-2-2.2-3-5.7-3-10.3V26.6h-20.1
		v14.9h-22.9V18.2h43V0h-63.2v102.4h20.2V59.1h22.9v18.6c0,8.4,2.3,14.9,6.8,19.6c4.5,4.7,10.8,7.1,18.8,7.1
		c9.4,0,16.5-3.1,21.5-9.4c1-1.2,1.8-2.5,2.5-3.9v11.4h19.1V26.6H203.2z"/>
	<path d="M432,102.4h-20.1V54.9c0-4.6-1-8.1-3-10.3c-2-2.2-5.1-3.3-9.2-3.3c-5.2,0-9.2,1.6-12,4.7c-2.8,3.2-4.2,7.7-4.2,13.7v42.8
		h-20.1V26.6h19.1V38c0.7-1.4,1.5-2.7,2.5-3.9c4.9-6.3,12.1-9.4,21.5-9.4c8,0,14.3,2.4,18.8,7.1c4.5,4.7,6.8,11.3,6.8,19.6V102.4z"
		/>
	<path d="M286.6,7.8h1.5l1.7,3.3h1.8l-1.9-3.3c1.4-0.1,2.1-0.7,2.1-2.1c0-0.8-0.2-1.6-0.9-2c-0.6-0.3-1.5-0.4-2.1-0.4H285v7.8h1.5
		V7.8z M286.6,4.5h1.9c0.8,0,1.9,0,1.9,1c0,1-0.6,1.2-1.5,1.2h-2.3V4.5z"/>
	<path d="M322.6,24.6c-11.9,0-21.4,3.6-28.4,10.9c-7,7.3-10.5,17.1-10.5,29.4c0,12.1,3.5,21.7,10.5,28.8c7,7.1,16.5,10.7,28.4,10.7
		c12,0,21.5-3.6,28.5-10.7c7-7.1,10.5-16.7,10.5-28.8c0-12.4-3.5-22.2-10.5-29.4C344,28.2,334.5,24.6,322.6,24.6 M336.2,81.8
		c-3.1,3.9-7.7,5.9-13.7,5.9c-6,0-10.5-2-13.6-5.9c-3.1-3.9-4.7-9.6-4.7-17.1c0-7.7,1.6-13.5,4.7-17.5c3.1-4,7.6-6,13.6-6
		c6,0,10.5,2,13.7,6c3.1,4,4.7,9.8,4.7,17.5C340.9,72.2,339.3,77.9,336.2,81.8"/>
	<path d="M277.6,87.2c-1-0.6-1.6-1.7-1.6-3.5V40.6h12.2v-14H276V0h-20.1v26.6h-7.6V0h-20.1v102.4h20.1V40.6h7.6V87
		c0,5.8,1.5,9.9,4.6,12.4c3.1,2.5,8.2,3.8,15.3,3.8c4.9,0,9-0.1,12.4-0.4V88h-4.1C280.8,88,278.6,87.7,277.6,87.2"/>
</g>
</svg>
