<svg xmlns="http://www.w3.org/2000/svg" width="288" height="115.73" viewBox="0 0 288 115.73"><defs><style>.cls-1{fill:red;}.cls-2{fill:#fff;}</style></defs><g id="Layer_2" data-name="Layer 2"><g id="Logo_Art" data-name="Logo Art"><polygon class="cls-1" points="16.07 55.65 0 83.48 32.13 83.48 48.2 55.65 16.07 55.65"/><polygon class="cls-1" points="64.27 83.48 96.4 83.48 80.33 55.65 48.2 55.65 64.27 83.48"/><polygon class="cls-1" points="48.2 0 32.13 27.83 48.2 55.65 64.27 27.83 48.2 0"/><polygon class="cls-2" points="110.82 71.69 123.69 71.69 123.69 67.03 110.82 67.03 110.82 61.28 125.3 61.28 125.3 56.61 110.82 56.61 105.37 56.61 105.37 61.28 105.37 78.87 105.37 83.54 110.82 83.54 125.68 83.54 125.68 78.87 110.82 78.87 110.82 71.69"/><polygon class="cls-2" points="110.45 32.12 116.17 52.13 116.39 52.13 121.18 52.13 121.4 52.13 127.12 32.12 127.12 52.13 132.2 52.13 132.2 25.21 129.43 25.21 127.04 25.21 124.42 25.21 118.78 44.1 113.15 25.21 110.53 25.21 108.14 25.21 105.37 25.21 105.37 52.13 110.45 52.13 110.45 32.12"/><rect class="cls-2" x="228.95" y="25.21" width="5.42" height="26.92"/><rect class="cls-2" x="233.37" y="56.61" width="5.42" height="26.92"/><rect class="cls-2" x="282.58" y="25.21" width="5.42" height="26.92"/><rect class="cls-2" x="134.36" y="25.21" width="5.42" height="26.92"/><polygon class="cls-2" points="275 35.71 264.22 35.71 264.22 25.21 258.89 25.21 258.89 52.13 264.22 52.13 264.22 40.38 275 40.38 275 52.13 280.33 52.13 280.33 25.21 275 25.21 275 35.71"/><polygon class="cls-2" points="147.81 52.13 153.34 52.13 153.34 29.87 159.92 29.87 159.92 25.21 153.34 25.21 147.81 25.21 141.23 25.21 141.23 29.87 147.81 29.87 147.81 52.13"/><polygon class="cls-2" points="197.27 83.54 202.8 83.54 202.8 61.28 209.38 61.28 209.38 56.61 202.8 56.61 197.27 56.61 190.69 56.61 190.69 61.28 197.27 61.28 197.27 83.54"/><path class="cls-2" d="M193.56,52.88c6.91,0,10.74-3.15,10.74-9.16V25.21h-5.42v19c0,2.32-1.95,4.25-5.32,4.25-4.08,0-5.27-2.28-5.27-4.25v-19H183V43.72c0,6.47,4,9.16,10.61,9.16"/><polygon class="cls-2" points="152.58 71.69 165.45 71.69 165.45 67.03 152.58 67.03 152.58 61.28 167.06 61.28 167.06 56.61 152.58 56.61 147.13 56.61 147.13 61.28 147.13 78.87 147.13 83.54 152.58 83.54 167.44 83.54 167.44 78.87 152.58 78.87 152.58 71.69"/><path class="cls-2" d="M218.36,29.49a3.3,3.3,0,0,1,3.14,3.18,3.33,3.33,0,0,1-3.44,3.39H211.6V29.49ZM218,48.06H211.6V40.25h6.3c2.26,0,4.18,1.3,4.18,3.92A3.91,3.91,0,0,1,218,48.06m-6.15,4.07h7.77c5.07,0,8.09-3,8.09-7.27a7.41,7.41,0,0,0-5.19-7,6.07,6.07,0,0,0,4.27-6c0-4-2.94-6.62-8.4-6.62H206.22V52.13h5.59Z"/><path class="cls-2" d="M216.16,68.57V61.24h6.56a3.53,3.53,0,0,1,3.7,3.68,3.74,3.74,0,0,1-3.53,3.65Zm10.81,2a6.56,6.56,0,0,0,4.78-6.5c0-4.79-3.24-7.53-8.76-7.53H210.71V83.5h5.45V72.89h4.63c2.8,0,4.32,1.45,4.78,3.37.5,2.12.38,5.27.92,7.24H232a39.08,39.08,0,0,1-1-7.08c-.2-3.64-2.11-5.1-4-5.81"/><polygon class="cls-2" points="132.88 56.61 127.43 56.61 127.43 78.87 127.43 83.54 132.88 83.54 145.57 83.54 145.57 78.87 132.88 78.87 132.88 56.61"/><path class="cls-2" d="M169,40.75c4.37.76,6.86,1.57,6.86,4.18,0,1.76-1.75,3.44-5.38,3.44S165,46.31,165,43.86h-5.23c0,4.68,3,9,11,9,7.53,0,10.79-4,10.79-8.53,0-4.24-2.77-6.93-7.75-7.91-4.78-.94-8.06-1.14-8.06-4.17,0-2.08,1.9-3.31,4.83-3.31,3.11,0,4.89,1.53,4.89,4.11h5.27c0-4.25-3.22-8.62-10.38-8.62-4.94,0-10.06,2.85-10.06,8.17,0,4.47,3.28,7.24,8.75,8.19"/><path class="cls-2" d="M244.91,40.75c4.37.76,6.86,1.57,6.86,4.18,0,1.76-1.75,3.44-5.38,3.44s-5.48-2.06-5.48-4.51h-5.23c0,4.68,3,9,10.95,9,7.53,0,10.8-4,10.8-8.53,0-4.24-2.78-6.93-7.76-7.91-4.78-.94-8-1.14-8-4.17,0-2.08,1.9-3.31,4.82-3.31,3.11,0,4.89,1.53,4.89,4.11h5.27c0-4.25-3.22-8.62-10.38-8.62-4.94,0-10.06,2.85-10.06,8.17,0,4.47,3.29,7.24,8.75,8.19"/><path class="cls-2" d="M179.71,79.38c-4.39,0-7-4.3-7-9.42s2.47-9.42,7-9.42c3.33,0,5,2.07,5.78,4.61h5.64c-.92-5.27-5-9.18-11.57-9.18-8.24,0-12.4,6.3-12.4,14.07s4.33,14.07,12.39,14.07c6.46,0,10.82-3.75,11.62-9.5h-5.68c-.74,2.71-2.51,4.77-5.78,4.77"/><path class="cls-2" d="M252.66,79.38c-4.38,0-6.95-4.3-6.95-9.42s2.47-9.42,6.95-9.42c3.33,0,5,2.07,5.78,4.61h5.64c-.92-5.27-5-9.18-11.57-9.18-8.24,0-12.4,6.3-12.4,14.07s4.33,14.07,12.4,14.07c6.45,0,10.81-3.75,11.61-9.5h-5.68c-.74,2.71-2.51,4.77-5.78,4.77"/><polygon class="cls-2" points="7.16 104.55 7.16 109.11 1.93 109.11 1.93 104.55 0 104.55 0 115.51 1.93 115.51 1.93 110.89 7.16 110.89 7.16 115.51 9.09 115.51 9.09 104.55 7.16 104.55"/><polygon class="cls-2" points="13.47 104.55 13.47 115.51 21.68 115.51 21.68 113.79 15.4 113.79 15.4 110.86 20.9 110.86 20.9 109.12 15.4 109.12 15.4 106.27 21.6 106.27 21.6 104.55 13.47 104.55"/><path class="cls-2" d="M30.28,106.77l1.9,4.39H28.4Zm-.86-2.3-4.82,11h2l1.13-2.65h5.18L34,115.52h2l-4.82-11Z"/><polygon class="cls-2" points="37.27 104.55 37.27 106.33 40.76 106.33 40.76 115.51 42.69 115.51 42.69 106.33 46.18 106.33 46.18 104.55 37.27 104.55"/><rect class="cls-2" x="49.87" y="104.55" width="1.93" height="10.97"/><polygon class="cls-2" points="63.95 104.55 63.95 112.13 58.07 104.55 56.29 104.55 56.29 115.51 58.18 115.51 58.18 107.71 64.23 115.51 65.84 115.51 65.84 104.55 63.95 104.55"/><path class="cls-2" d="M69.74,110.06v0a5.59,5.59,0,0,1,5.66-5.67,5.88,5.88,0,0,1,4.21,1.49l-1.22,1.46a4.31,4.31,0,0,0-3.07-1.16A3.69,3.69,0,0,0,71.77,110v0A3.66,3.66,0,0,0,75.49,114a4.47,4.47,0,0,0,2.65-.83v-2h-2.8v-1.69H80V114a7,7,0,0,1-4.58,1.7,5.44,5.44,0,0,1-5.69-5.64"/><path class="cls-2" d="M95.33,107.15v0a1.19,1.19,0,0,0-1.24-1.24,1.27,1.27,0,0,0-1.32,1.32v0a2.34,2.34,0,0,0,.83,1.63c1.13-.41,1.73-.93,1.73-1.71m.06,6L93,110.63a2,2,0,0,0-1.46,1.81v0a1.67,1.67,0,0,0,1.83,1.59,3.05,3.05,0,0,0,2.07-.95m1.1,1.13a4.85,4.85,0,0,1-3.36,1.42c-2,0-3.6-1.24-3.6-3.13v0a3.28,3.28,0,0,1,2.35-3.06,3.57,3.57,0,0,1-.91-2.28v0a2.88,2.88,0,0,1,3.15-2.77A2.7,2.7,0,0,1,97,107v0c0,1.44-1,2.3-2.41,2.85l1.88,1.91a16.68,16.68,0,0,0,1.18-2.11l1.45.77A16.68,16.68,0,0,1,97.65,113l1.73,1.75-1.44,1Z"/><path class="cls-2" d="M113.83,106.77l1.89,4.39H112Zm-.86-2.3-4.83,11h2l1.12-2.65h5.19l1.11,2.65h2l-4.83-11Z"/><rect class="cls-2" x="123.13" y="104.55" width="1.93" height="10.97"/><path class="cls-2" d="M134.3,110c1.38,0,2.26-.72,2.26-1.83v0c0-1.17-.85-1.82-2.27-1.82h-2.81V110Zm-4.74-5.43h4.88a4.44,4.44,0,0,1,3.17,1.1,3.3,3.3,0,0,1,.91,2.36v0a3.29,3.29,0,0,1-2.6,3.32l3,4.16h-2.29l-2.69-3.83h-2.42v3.83h-1.92Z"/><path class="cls-2" d="M148.23,110.06v0a5.54,5.54,0,0,1,5.64-5.67,5.74,5.74,0,0,1,4.31,1.71l-1.24,1.42a4.4,4.4,0,0,0-3.09-1.34,3.67,3.67,0,0,0-3.6,3.85v0a3.7,3.7,0,0,0,3.62,3.89,4.31,4.31,0,0,0,3.15-1.41l1.24,1.25a5.67,5.67,0,0,1-4.45,1.94,5.5,5.5,0,0,1-5.58-5.64"/><path class="cls-2" d="M170.51,110.06v0a3.74,3.74,0,0,0-3.73-3.88,3.69,3.69,0,0,0-3.7,3.85v0a3.75,3.75,0,0,0,3.73,3.89,3.7,3.7,0,0,0,3.7-3.86m-9.45,0v0a5.74,5.74,0,0,1,11.47,0v0a5.74,5.74,0,0,1-11.47,0"/><polygon class="cls-2" points="184.09 104.55 184.09 112.13 178.22 104.55 176.43 104.55 176.43 115.51 178.32 115.51 178.32 107.71 184.37 115.51 185.98 115.51 185.98 104.55 184.09 104.55"/><path class="cls-2" d="M192.3,106.3v7.46h2.16a3.58,3.58,0,0,0,3.81-3.7v0a3.61,3.61,0,0,0-3.81-3.73Zm-1.93-1.75h4.09c3.45,0,5.83,2.36,5.83,5.45v0a5.49,5.49,0,0,1-5.83,5.49h-4.09Z"/><rect class="cls-2" x="204.3" y="104.55" width="1.93" height="10.97"/><polygon class="cls-2" points="209.91 104.55 209.91 106.33 213.4 106.33 213.4 115.51 215.33 115.51 215.33 106.33 218.82 106.33 218.82 104.55 209.91 104.55"/><rect class="cls-2" x="222.5" y="104.55" width="1.93" height="10.97"/><path class="cls-2" d="M237.89,110.06v0a3.75,3.75,0,0,0-3.73-3.88,3.69,3.69,0,0,0-3.7,3.85v0a3.75,3.75,0,0,0,3.73,3.89,3.7,3.7,0,0,0,3.7-3.86m-9.45,0v0a5.74,5.74,0,0,1,11.47,0v0a5.62,5.62,0,0,1-5.75,5.67,5.57,5.57,0,0,1-5.72-5.64"/><polygon class="cls-2" points="251.47 104.55 251.47 112.13 245.59 104.55 243.81 104.55 243.81 115.51 245.7 115.51 245.7 107.71 251.75 115.51 253.36 115.51 253.36 104.55 251.47 104.55"/><rect class="cls-2" x="257.86" y="104.55" width="1.93" height="10.97"/><polygon class="cls-2" points="271.94 104.55 271.94 112.13 266.07 104.55 264.28 104.55 264.28 115.51 266.18 115.51 266.18 107.71 272.23 115.51 273.84 115.51 273.84 104.55 271.94 104.55"/><path class="cls-2" d="M277.74,110.06v0a5.59,5.59,0,0,1,5.65-5.67,5.91,5.91,0,0,1,4.22,1.49l-1.22,1.46a4.35,4.35,0,0,0-3.07-1.16,3.69,3.69,0,0,0-3.56,3.85v0a3.66,3.66,0,0,0,3.73,3.92,4.52,4.52,0,0,0,2.65-.83v-2h-2.81v-1.69H288V114a7,7,0,0,1-4.57,1.7,5.44,5.44,0,0,1-5.69-5.64"/></g></g></svg>